<svg width="23" height="23" viewBox="0 0 23 23" fill="none" xmlns="http://www.w3.org/2000/svg">
<path d="M12.7537 1.02476L12.7076 3.14845C17.3151 3.81661 20.4967 8.08256 19.8281 12.6855C19.2608 16.5019 16.185 19.4748 12.3446 19.8436L12.2989 21.9462C18.0994 21.4938 22.4204 16.4548 21.9673 10.66C21.6023 5.65585 17.7206 1.62711 12.7537 1.02476ZM10.6483 1.01054C8.59191 1.16568 6.61739 1.91162 4.98902 3.20152L6.46005 4.7902C7.65926 3.86963 9.0932 3.29075 10.6026 3.1132L10.6483 1.01054ZM3.47297 4.65163C2.11226 6.22082 1.28071 8.14862 1.02544 10.2047L3.13015 10.2504C3.36255 8.76187 3.98273 7.35539 4.94515 6.18775L3.47297 4.65163ZM0.990248 12.3075C1.15592 14.3727 1.92395 16.3353 3.19412 17.9617L4.72115 16.4908C3.82091 15.2826 3.25192 13.8503 3.09496 12.3533L0.990248 12.3075ZM6.17137 18.0685L4.63519 19.4761C6.19544 20.8353 8.13476 21.7084 10.1926 21.974L10.2383 19.8714C8.74806 19.6497 7.34041 19.0195 6.17137 18.0685ZM14.2905 7.33757L11.5057 10.0013L8.83933 7.21906L7.32329 8.66917L9.98968 11.4514L7.20488 14.1151L8.65647 15.6297L11.4413 12.966L14.1077 15.7482L15.6237 14.2981L12.9573 11.5159L15.7421 8.85221L14.2905 7.33757Z" fill="#9CDBC8"/>
</svg>
